<?xml version="1.0" encoding="utf-8"?>
<!-- Generator: Adobe Illustrator 24.0.1, SVG Export Plug-In . SVG Version: 6.00 Build 0)  -->
<svg version="1.1" id="Layer_1" xmlns="http://www.w3.org/2000/svg" xmlns:xlink="http://www.w3.org/1999/xlink" x="0px" y="0px"
	 viewBox="0 0 1913.57 509.49" style="enable-background:new 0 0 1913.57 509.49;" xml:space="preserve" width="100%" height="100%">
<style type="text/css">
	.st0{fill:url(#SVGID_1_);}
	.st1{fill:url(#SVGID_2_);}
	.st2{fill:url(#SVGID_3_);}
	.st3{fill:#1A1A1A;}
</style>
<linearGradient id="SVGID_1_" gradientUnits="userSpaceOnUse" x1="470.0463" y1="290.4795" x2="166.1317" y2="58.9256">
	<stop  offset="0" style="stop-color:#D4145A"/>
	<stop  offset="1" style="stop-color:#5957D4"/>
</linearGradient>
<path class="st0" d="M423.39,355.77c5.81-14.21,8.84-29.53,8.84-44.91c0-16.96-3.54-33.37-10.52-48.8
	c-7.98-17.64-20.28-33.2-35.58-45.03c-2.88-2.66-6.01-4.98-9.33-6.9l-254.27-147c17.91-18.74,42.68-29.41,68.64-29.41
	c14.25,0,27.96,3.08,40.74,9.16l181.07,104.54c38.29,22.1,62.08,63.31,62.08,107.53C475.07,295.01,455.54,332.61,423.39,355.77z"/>
<linearGradient id="SVGID_2_" gradientUnits="userSpaceOnUse" x1="87.6492" y1="-18.9028" x2="87.6492" y2="370.2824">
	<stop  offset="0" style="stop-color:#D4145A"/>
	<stop  offset="1" style="stop-color:#5957D4"/>
</linearGradient>
<path class="st1" d="M72.4,417.74c-19.82-4.73-37.69-15.8-50.69-31.48C7.71,369.37,0,347.86,0,325.69V124.18
	C0,80.13,23.65,39.01,61.72,16.85l0.31-0.18C80.84,5.77,102.36,0,124.26,0c17.65,0,35.08,3.75,51.04,10.93
	c-32.09,4.39-61.6,21.96-80.66,48.51c-11.93,16.63-19.39,36.12-21.56,56.4c-0.46,2.75-0.69,5.56-0.69,8.35V417.74z"/>
<linearGradient id="SVGID_3_" gradientUnits="userSpaceOnUse" x1="3.8659" y1="491.9132" x2="369.5641" y2="304.2523">
	<stop  offset="0" style="stop-color:#D4145A"/>
	<stop  offset="1" style="stop-color:#5957D4"/>
</linearGradient>
<path class="st2" d="M125.04,509.49c-21.92,0-43.48-5.78-62.34-16.72l-0.84-0.49C27.67,472.43,5.02,437.2,0.74,398.33
	c19.86,25.84,49.28,42.16,82.45,45.35c3.87,0.37,7.73,0.56,11.47,0.56c16.53,0,32.53-3.34,47.54-9.93l0.17-0.08l262.2-149.9
	c2.51,8.58,3.78,17.48,3.78,26.53c0,31.06-15.26,60.17-40.83,77.88L187.12,492.9C168.33,503.75,146.87,509.49,125.04,509.49
	L125.04,509.49z"/>
<path class="st3" d="M566.13,15.19c10.55,0,18.99,7.39,18.99,17.94c0,11.08-8.44,17.94-18.99,17.94c-10.02,0-17.94-6.86-17.94-17.94
	C548.2,22.57,556.11,15.19,566.13,15.19z M551.89,407.19V117.01h29.02v290.18H551.89z"/>
<path class="st3" d="M850.03,190.35v216.84h-29.02v-214.2c0-39.04-16.88-59.62-64.89-59.62c-70.17,0-96.55,50.12-96.55,50.12v223.7
	h-29.02V117.01h17.41l9.5,37.99c0,0,28.49-44.85,106.57-44.85C823.13,110.15,850.03,139.7,850.03,190.35z"/>
<path class="st3" d="M1108.36,407.19l-9.5-30.6c0,0-32.18,37.46-96.02,37.46c-78.61,0-123.99-60.67-123.99-151.95
	c0-91.27,45.37-151.95,123.99-151.95c63.84,0,97.61,50.65,97.61,50.65l-3.69-43.79V22.04h29.02v385.15H1108.36z M908.4,262.1
	c0,80.72,36.93,128.73,97.08,128.73c61.2,0,91.27-35.88,91.27-35.88V186.13c0,0-30.07-52.76-91.27-52.76
	C945.34,133.37,908.4,173.99,908.4,262.1z"/>
<path class="st3" d="M1396.24,265.79h-209.98c0,78.61,39.57,125.04,106.57,125.04c51.7,0,86-19.52,86-19.52v24.8
	c0,0-42.74,17.94-82.31,17.94c-87.05,0-138.76-58.04-138.76-155.64c0-89.16,53.29-148.25,132.95-148.25
	C1373.03,110.15,1412.07,163.97,1396.24,265.79z M1186.26,244.16h187.3c11.08-70.17-21.1-110.8-80.19-110.8
	C1228.46,133.37,1191.53,171.35,1186.26,244.16z"/>
<path class="st3" d="M1544.93,407.19h-25.32L1406.7,117.01h31.66l91.27,249.55l2.64,16.36l2.64-16.36l91.27-249.55h31.66
	L1544.93,407.19z"/>
<path class="st3" d="M1913.57,384.5c0,81.78-44.85,124.51-131.37,124.51c-51.18,0-82.31-12.66-82.31-12.66v-26.38
	c0,0,30.6,15.83,82.31,15.83c67,0,102.35-30.6,102.35-89.16l3.69-37.46c0,0-33.77,48.01-97.6,48.01
	c-70.17,0-106.57-35.88-106.57-104.99V117.01h29.02v194.16c0,50.12,25.85,72.81,82.83,72.81c61.2,0,88.64-47.48,88.64-47.48V117.01
	h29.02V384.5z"/>
</svg>
